# xmcd CD database file
#
# Track frame offsets:
#	150
#	17585
#	25349
#	33742
#	47311
#	67032
#
# Disc length: 1153 seconds
#
# Revision: 0
# Processed by: cddbd v1.5.1PL2 Copyright (c) Steve Scherf et al.
# Submitted via: CDex 1.51
#
DISCID=46047f06
DTITLE=Milkyway3 Theme Song Maxi - W.I.T.C.H
DYEAR=2005
DGENRE=Game
TTITLE0=QUEEN OF QUEEN Full ChorusVersion
TTITLE1=QUEEN OF QUEEN GameVersion
TTITLE2=夢をあきらめないで．．． GameVersion
TTITLE3=恋はＭｉｌｋｙｄａｙｓ GameVersion
TTITLE4=Blasterhead - QUEEN OF QUEEN 〜Blasterhead Remix〜
TTITLE5=小池雅也 - QUEEN OF QUEEN 小野　雅也　Remix
EXTD=YEAR: 2005
EXTT0=
EXTT1=
EXTT2=
EXTT3=
EXTT4=
EXTT5=
PLAYORDER=
